PathFileType	4	(x/y/z)	S05_P20_T18
DataRate	CameraRate	NumFrames	NumMarkers	Units	OrigDataRate	OrigDataStartFrame	OrigNumFrames
240	240	10	50	mm	240	264	351
Frame#	Time	Sternum			R.Acromium			L.Acromium			Top.Head			R.ASIS			L.ASIS			R.PSIS			L.PSIS			R.Great.Tro			L.Great.Tro			R.Iliac.Crest			L.Iliac.Crest			V.Sacral			R.Thigh.Upper.Post			R.Thigh.Lower.Ant			R.Thigh.Lower.Post			R.Thigh.Upper.Ant			R.Knee.Lat			R.Knee.Med			R.Shank.Upper.Post			R.Shank.Lower.Ant			R.Shank.Lower.Post			R.Shank.Upper.Ant			R.Ankle.Lat			R.Ankle.Med			R.Heel.Upper			R.Heel.Med			R.Heel.Lat			R.Toe.Lat			R.Toe.Med			R.Toe.Tip			L.Thigh.Upper.Post			L.Thigh.Lower.Ant			L.Thigh.Lower.Post			L.Thigh.Upper.Ant			L.Knee.Lat			L.Shank.Upper.Post			L.Shank.Lower.Ant			L.Shank.Lower.Post			L.Shank.Upper.Ant			L.Ankle.Lat			L.Ankle.Med			L.Heel.Upper			L.Heel.Med			L.Heel.Lat			L.Toe.Lat			L.Toe.Med			L.Toe.Tip			Cervical.Spine			Back			
		X1	Y1	Z1	X2	Y2	Z2	X3	Y3	Z3	X4	Y4	Z4	X5	Y5	Z5	X6	Y6	Z6	X7	Y7	Z7	X8	Y8	Z8	X9	Y9	Z9	X10	Y10	Z10	X11	Y11	Z11	X12	Y12	Z12	X13	Y13	Z13	X14	Y14	Z14	X15	Y15	Z15	X16	Y16	Z16	X17	Y17	Z17	X18	Y18	Z18	X19	Y19	Z19	X20	Y20	Z20	X21	Y21	Z21	X22	Y22	Z22	X23	Y23	Z23	X24	Y24	Z24	X25	Y25	Z25	X26	Y26	Z26	X27	Y27	Z27	X28	Y28	Z28	X29	Y29	Z29	X30	Y30	Z30	X31	Y31	Z31	X32	Y32	Z32	X33	Y33	Z33	X34	Y34	Z34	X35	Y35	Z35	X36	Y36	Z36	X37	Y37	Z37	X38	Y38	Z38	X39	Y39	Z39	X40	Y40	Z40	X41	Y41	Z41	X42	Y42	Z42	X43	Y43	Z43	X44	Y44	Z44	X45	Y45	Z45	X46	Y46	Z46	X47	Y47	Z47	X48	Y48	Z48	X49	Y49	Z49	X50	Y50	Z50	

264	1.0958	83.565	1245.9	307.67	-2.1667	1520.5	450.8	-11.302	1522	128.49	-6.9157	1812.4	269.44	-3.7914	993.05	439.42	20.589	1003.3	191.06	-196.6	1013.7	333.9	-187.26	1017.3	242.57	-92.241	912.75	494.14	-51.184	923.36	105.86	-93.078	1077.7	469.23	-66.66	1078.9	135.5	-205.63	980.53	299.03	-15.02	691.69	510.41	49.957	623.5	470.71	-15.502	602.18	494.35	46.69	712.1	486.22	-24.596	508.36	482.14	3.0923	487.24	352.91	-235.29	397.28	446.3	-242.54	306.47	441.58	-289.47	347.57	421.58	-187.24	356.39	465.21	-331.82	253.07	416.3	-295.02	260.52	334.83	-401.57	276.98	342.72	-414.87	249.7	309.88	-426.94	252.75	374.38	-352.91	111.7	442.66	-300.53	92.333	333.71	-255.25	60.359	387.97	7.3802	689.11	120.9	101.35	637.97	149.02	39.389	601.09	140.98	77.738	723.83	128.42	75.942	519.29	149.79	26.86	314.47	153.51	97.374	260.82	163.05	28.512	243.43	173.83	91.453	330.28	147.98	64.532	109.76	188.29	99.088	130.84	272.98	11.669	64.391	243.59	23.403	42.098	277.32	12.206	37.206	216.51	192.14	38.857	156.87	218.28	57.914	273.47	278.52	70.129	217.18	-56.903	1555	294.96	-179.98	1284.3	301.69
265	1.1	88.888	1246.2	307.59	3.2339	1521.1	450.42	-5.5133	1522.4	128.07	-1.2011	1813	268.93	1.5515	993.59	439.04	25.581	1003.9	190.66	-191.44	1014.1	333.9	-182.21	1017.9	242.55	-86.308	913.11	493.99	-46.491	923.99	105.58	-87.924	1078	469.09	-61.67	1079.5	135.29	-200.54	980.98	298.99	-6.198	692.97	510.6	59.45	625.64	470.57	-5.5616	603.44	494.65	55.003	714.21	485.91	-13.424	509.68	482.4	14.121	488.78	353.04	-224.31	399.54	446.12	-231.85	308.75	441.5	-278.7	349.98	421.48	-176.42	358.51	465.11	-321.35	255.83	416.12	-284.38	263.04	334.58	-391.28	279.43	342.27	-404.52	251.89	309.59	-416.58	255.38	374.14	-342.14	114.94	443.19	-289.83	94.831	334.36	-244.45	62.702	388.89	11.174	689.49	120.55	104.97	637.95	148.49	42.83	601.33	140.58	81.691	723.91	127.95	78.952	519.28	149.43	28.562	314.73	153.32	98.726	260.68	162.86	29.755	243.73	173.7	93.255	330.13	147.73	64.877	109.88	188.3	99.522	130.85	272.97	11.779	64.454	243.57	23.452	42.164	277.31	12.253	37.306	216.5	192.22	38.707	156.83	218.41	57.671	273.5	278.7	69.643	217.21	-51.334	1555.6	294.49	-174.63	1284.9	301.26
266	1.1042	94.189	1246.5	307.52	8.6326	1521.7	450.07	0.25095	1522.8	127.68	4.5005	1813.5	268.46	6.8593	994.19	438.66	30.539	1004.5	190.26	-186.31	1014.5	333.9	-177.18	1018.5	242.54	-80.406	913.55	493.85	-41.855	924.61	105.33	-82.775	1078.4	468.94	-56.709	1080.1	135.09	-195.48	981.47	298.97	2.5647	694.37	510.71	68.858	627.9	470.33	4.3114	604.84	494.87	63.243	716.43	485.51	-2.3537	511.13	482.56	25.022	490.46	353.09	-213.32	401.65	445.88	-221.03	310.87	441.4	-267.84	352.15	421.34	-165.55	360.55	464.94	-310.64	258.26	415.9	-273.54	265.33	334.29	-380.85	281.42	341.82	-393.99	253.6	309.32	-406	257.49	373.92	-330.8	117.88	443.7	-278.62	97.142	334.92	-233.05	65.024	389.67	14.882	689.86	120.24	108.5	637.91	148	46.173	601.57	140.22	85.562	723.96	127.51	81.849	519.27	149.1	30.189	315	153.18	100.01	260.55	162.69	30.943	244.03	173.61	94.974	330	147.51	65.208	110	188.33	99.941	130.87	272.98	11.87	64.529	243.56	23.495	42.227	277.3	12.3	37.408	216.5	192.31	38.576	156.8	218.53	57.444	273.53	278.87	69.193	217.24	-45.77	1556.2	294.06	-169.3	1285.6	300.83
267	1.1083	99.472	1246.9	307.45	14.029	1522.3	449.75	5.9905	1523.2	127.31	10.189	1814.1	268.03	12.13	994.85	438.3	35.468	1005.1	189.87	-181.2	1014.9	333.9	-172.18	1019.1	242.53	-74.535	914.08	493.72	-37.272	925.23	105.12	-77.628	1078.9	468.79	-51.773	1080.7	134.88	-190.43	982.01	298.96	11.265	695.89	510.75	78.18	630.28	470.01	14.112	606.36	495.01	71.41	718.74	485.04	8.6097	512.7	482.65	35.797	492.28	353.07	-202.34	403.59	445.58	-210.09	312.81	441.27	-256.91	354.07	421.16	-154.61	362.51	464.72	-299.7	260.37	415.66	-262.52	267.37	333.94	-370.28	282.94	341.37	-383.27	254.82	309.07	-395.2	259.1	373.73	-318.92	120.49	444.15	-266.93	99.251	335.38	-221.06	67.293	390.3	18.507	690.23	119.97	111.94	637.85	147.56	49.423	601.8	139.91	89.354	724	127.12	84.637	519.26	148.81	31.744	315.26	153.09	101.23	260.44	162.54	32.078	244.32	173.57	96.614	329.87	147.32	65.527	110.13	188.37	100.35	130.89	273.01	11.94	64.616	243.57	23.532	42.288	277.3	12.345	37.514	216.51	192.38	38.462	156.77	218.64	57.229	273.57	279.03	68.772	217.27	-40.213	1556.8	293.65	-163.99	1286.4	300.41
268	1.1125	104.74	1247.3	307.39	19.424	1522.9	449.45	11.706	1523.7	126.97	15.866	1814.7	267.64	17.363	995.57	437.93	40.373	1005.8	189.48	-176.12	1015.5	333.92	-167.19	1019.7	242.53	-68.694	914.68	493.6	-32.737	925.84	104.94	-72.483	1079.5	468.63	-46.86	1081.4	134.68	-185.41	982.58	298.97	19.901	697.52	510.72	87.415	632.76	469.6	23.837	608.01	495.08	79.502	721.15	484.5	19.462	514.39	482.66	46.445	494.22	352.97	-191.35	405.35	445.24	-199.03	314.57	441.11	-245.91	355.73	420.96	-143.61	364.35	464.46	-288.53	262.13	415.39	-251.32	269.16	333.55	-359.56	284.01	340.95	-372.37	255.57	308.85	-384.18	260.19	373.56	-306.54	122.74	444.56	-254.77	101.14	335.74	-208.52	69.483	390.78	22.056	690.59	119.74	115.29	637.77	147.15	52.585	602.02	139.64	93.073	724.03	126.76	87.318	519.24	148.56	33.231	315.52	153.04	102.38	260.34	162.42	33.163	244.62	173.56	98.179	329.75	147.17	65.835	110.26	188.42	100.74	130.91	273.05	11.989	64.715	243.59	23.561	42.349	277.31	12.39	37.625	216.53	192.46	38.361	156.74	218.76	57.024	273.61	279.19	68.374	217.3	-34.663	1557.4	293.27	-158.69	1287.1	300.01
269	1.1167	109.99	1247.7	307.33	24.815	1523.6	449.16	17.397	1524.2	126.65	21.53	1815.4	267.28	22.558	996.35	437.57	45.257	1006.4	189.1	-171.05	1016	333.94	-162.22	1020.4	242.54	-62.884	915.35	493.5	-28.244	926.44	104.79	-67.341	1080.2	468.46	-41.966	1082	134.48	-180.4	983.2	298.99	28.468	699.24	510.63	96.56	635.34	469.13	33.479	609.76	495.08	87.52	723.63	483.91	30.2	516.18	482.6	56.966	496.28	352.81	-180.37	406.93	444.86	-187.84	316.12	440.95	-234.84	357.12	420.73	-132.56	366.08	464.14	-277.15	263.53	415.1	-239.96	270.68	333.14	-348.7	284.62	340.54	-361.28	255.86	308.65	-372.96	260.78	373.41	-293.69	124.64	444.91	-242.17	102.81	336.01	-195.46	71.567	391.13	25.532	690.96	119.56	118.56	637.68	146.78	55.663	602.24	139.41	96.722	724.04	126.45	89.897	519.21	148.35	34.652	315.79	153.04	103.47	260.26	162.31	34.202	244.91	173.59	99.672	329.64	147.04	66.134	110.4	188.49	101.12	130.93	273.1	12.017	64.827	243.62	23.582	42.408	277.31	12.435	37.739	216.55	192.53	38.271	156.72	218.87	56.825	273.66	279.34	67.996	217.34	-29.122	1558.1	292.92	-153.41	1287.9	299.61
270	1.1208	115.23	1248.1	307.28	30.203	1524.2	448.9	23.066	1524.7	126.35	27.183	1816.1	266.96	27.715	997.18	437.21	50.125	1007.1	188.72	-166	1016.7	333.97	-157.27	1021.1	242.56	-57.106	916.1	493.41	-23.784	927.05	104.67	-62.204	1080.9	468.29	-37.089	1082.6	134.28	-175.41	983.87	299.03	36.962	701.05	510.49	105.61	638	468.59	43.035	611.62	495	95.46	726.19	483.27	40.819	518.06	482.47	67.359	498.44	352.58	-169.39	408.3	444.45	-176.54	317.47	440.76	-223.69	358.23	420.49	-121.46	367.67	463.79	-265.56	264.59	414.8	-228.43	271.94	332.69	-337.69	284.78	340.15	-350	255.69	308.47	-361.53	260.87	373.29	-280.4	126.17	445.2	-229.15	104.24	336.18	-181.91	73.526	391.35	28.94	691.32	119.41	121.76	637.59	146.45	58.662	602.46	139.22	100.31	724.05	126.17	92.379	519.19	148.17	36.014	316.05	153.08	104.51	260.19	162.22	35.197	245.19	173.64	101.1	329.55	146.93	66.426	110.54	188.55	101.49	130.95	273.17	12.022	64.953	243.67	23.595	42.468	277.32	12.479	37.858	216.57	192.59	38.189	156.71	218.99	56.631	273.71	279.49	67.633	217.37	-23.589	1558.8	292.59	-148.13	1288.7	299.22
271	1.125	120.46	1248.6	307.22	35.587	1524.9	448.64	28.714	1525.3	126.07	32.825	1816.8	266.68	32.836	998.05	436.86	54.979	1007.8	188.35	-160.96	1017.3	334.01	-152.32	1021.8	242.59	-51.359	916.91	493.34	-19.353	927.65	104.57	-57.072	1081.7	468.11	-32.224	1083.3	134.09	-170.43	984.58	299.08	45.38	702.93	510.29	114.57	640.74	468	52.498	613.57	494.87	103.32	728.81	482.6	51.317	520.02	482.27	77.623	500.7	352.29	-158.42	409.46	444.03	-165.13	318.61	440.56	-212.49	359.07	420.24	-110.3	369.11	463.41	-253.77	265.29	414.49	-216.74	272.92	332.22	-326.52	284.5	339.78	-338.53	255.09	308.31	-349.9	260.48	373.18	-266.72	127.33	445.42	-215.74	105.44	336.25	-167.91	75.342	391.44	32.284	691.69	119.29	124.87	637.48	146.16	61.585	602.68	139.07	103.83	724.04	125.92	94.768	519.16	148.03	37.319	316.31	153.15	105.5	260.13	162.15	36.151	245.48	173.72	102.46	329.46	146.85	66.71	110.68	188.63	101.85	130.97	273.24	12.004	65.091	243.73	23.599	42.528	277.34	12.523	37.981	216.6	192.66	38.116	156.69	219.1	56.44	273.76	279.63	67.284	217.41	-18.066	1559.5	292.28	-142.86	1289.6	298.84
272	1.1292	125.67	1249	307.17	40.967	1525.6	448.4	34.343	1525.9	125.82	38.456	1817.5	266.43	37.922	998.97	436.51	59.824	1008.5	187.99	-155.94	1018.1	334.06	-147.38	1022.6	242.63	-45.646	917.78	493.28	-14.943	928.27	104.5	-51.947	1082.5	467.94	-27.368	1084	133.9	-165.45	985.33	299.14	53.717	704.89	510.05	123.42	643.55	467.36	61.864	615.61	494.68	111.1	731.48	481.9	61.691	522.05	482.02	87.758	503.04	351.95	-147.45	410.41	443.59	-153.61	319.53	440.35	-201.22	359.62	419.97	-99.095	370.41	462.99	-241.79	265.64	414.16	-204.9	273.63	331.74	-315.2	283.79	339.44	-326.86	254.06	308.16	-338.06	259.62	373.09	-252.68	128.12	445.57	-201.95	106.39	336.25	-153.49	77.002	391.42	35.57	692.06	119.2	127.92	637.36	145.9	64.436	602.9	138.95	107.3	724.03	125.71	97.069	519.13	147.91	38.571	316.57	153.24	106.45	260.09	162.1	37.068	245.76	173.83	103.77	329.39	146.79	66.988	110.83	188.71	102.2	130.99	273.33	11.961	65.243	243.8	23.593	42.588	277.35	12.566	38.109	216.64	192.72	38.048	156.68	219.21	56.251	273.81	279.77	66.947	217.44	-12.552	1560.2	291.99	-137.61	1290.5	298.47
273	1.1333	130.87	1249.6	307.11	46.341	1526.3	448.18	39.953	1526.6	125.58	44.079	1818.2	266.22	42.979	999.93	436.16	64.662	1009.2	187.64	-150.93	1018.8	334.12	-142.45	1023.3	242.68	-39.966	918.7	493.25	-10.548	928.89	104.44	-46.83	1083.4	467.76	-22.517	1084.6	133.72	-160.49	986.12	299.21	61.969	706.91	509.78	132.18	646.41	466.69	71.128	617.72	494.43	118.8	734.19	481.19	71.937	524.14	481.7	97.763	505.47	351.56	-136.49	411.14	443.14	-141.99	320.23	440.12	-189.89	359.9	419.7	-87.845	371.55	462.56	-229.63	265.64	413.83	-192.92	274.06	331.24	-303.71	282.66	339.11	-315	252.62	308.04	-326.03	258.3	373	-238.31	128.55	445.66	-187.81	107.1	336.17	-138.69	78.497	391.3	38.8	692.44	119.14	130.89	637.24	145.68	67.22	603.12	138.87	110.72	724.02	125.53	99.287	519.1	147.83	39.775	316.82	153.35	107.35	260.05	162.06	37.95	246.04	173.94	105.02	329.32	146.76	67.26	110.97	188.8	102.53	131.02	273.43	11.894	65.407	243.88	23.577	42.65	277.37	12.608	38.24	216.68	192.78	37.986	156.68	219.33	56.064	273.87	279.91	66.619	217.48	-7.046	1561	291.71	-132.36	1291.4	298.1
